<svg xmlns="http://www.w3.org/2000/svg" width="156" height="51" viewBox="0 0 156 51" fill="none"><path fill-rule="evenodd" clip-rule="evenodd" d="M58.7228 31.0685H61.8576L61.5403 25.1266L58.7228 31.0685ZM51.5242 38.0122L60.2109 20.8086H65.3171L66.9261 38.0122H62.2655L62.0615 34.5062H57.1592L55.3841 38.0122H51.5242ZM79.9939 33.8916C79.4806 35.2095 78.6025 36.3524 77.4634 37.1851C76.3613 37.9665 75.0347 38.3637 73.6866 38.3158C72.9216 38.3605 72.1559 38.2393 71.4417 37.9604C70.7274 37.6815 70.0813 37.2514 69.5472 36.6994C69.0472 36.1156 68.674 35.4334 68.4516 34.6963C68.2292 33.9593 68.1624 33.1838 68.2555 32.4193C68.2997 31.4918 68.4909 30.5772 68.822 29.7102C69.1655 28.8887 69.6261 28.1218 70.1892 27.4335C70.8112 26.6228 71.6271 25.9833 72.5611 25.5743C73.5026 25.1194 74.5381 24.8957 75.5825 24.9217C76.9601 24.8546 78.3112 25.3188 79.3594 26.2194C79.8415 26.6818 80.2212 27.2412 80.4736 27.861C80.7261 28.4808 80.8458 29.1471 80.8248 29.8164L76.6854 30.378V30.2186C76.7539 29.742 76.6551 29.2564 76.4059 28.845C76.312 28.6735 76.1708 28.5329 75.9993 28.44C75.8278 28.3471 75.6333 28.306 75.439 28.3214C74.8347 28.3214 74.3135 28.7236 73.8301 29.5736C73.3337 30.578 73.0581 31.6779 73.0219 32.7988C72.9575 33.3224 73.0579 33.8531 73.3089 34.3165C73.4329 34.4855 73.5962 34.6216 73.7844 34.7128C73.9726 34.8041 74.1802 34.8478 74.3891 34.8401C74.8279 34.8399 75.2487 34.6653 75.5599 34.3545C75.9215 33.9817 76.1816 33.5218 76.3152 33.0188L79.9939 33.8916ZM93.0692 33.8916C92.527 35.1949 91.6514 36.3312 90.5312 37.1851C89.4216 37.9509 88.1002 38.3465 86.7544 38.3158C85.9945 38.3652 85.2332 38.246 84.5243 37.9666C83.8155 37.6873 83.1765 37.2546 82.6528 36.6994C82.1387 36.1234 81.7539 35.4431 81.5246 34.7047C81.2952 33.9662 81.2266 33.1868 81.3233 32.4193C81.3995 31.4926 81.6028 30.5809 81.9276 29.7102C82.2427 28.8828 82.6919 28.1135 83.257 27.4335C83.887 26.6309 84.7007 25.993 85.6289 25.5743C86.5728 25.1266 87.6067 24.9033 88.6503 24.9217C90.0418 24.8536 91.4074 25.3173 92.4725 26.2194C92.9448 26.6863 93.3141 27.2479 93.5561 27.8676C93.7982 28.4874 93.9077 29.1514 93.8775 29.8164L89.7381 30.378V30.2186C89.7837 29.743 89.6863 29.2645 89.4586 28.845C89.352 28.6747 89.2019 28.5362 89.0238 28.4441C88.8458 28.352 88.6463 28.3096 88.4464 28.3214C87.8497 28.3214 87.3209 28.7236 86.8828 29.5736C86.3841 30.5754 86.1205 31.6787 86.1123 32.7988C86.048 33.3224 86.1483 33.8531 86.3994 34.3165C86.5185 34.4907 86.6808 34.6306 86.8702 34.7224C87.0597 34.8143 87.2697 34.8548 87.4795 34.8401C87.691 34.8383 87.8999 34.7945 88.0944 34.7111C88.2889 34.6278 88.465 34.5066 88.6126 34.3545C88.9867 33.9913 89.2489 33.5276 89.3679 33.0188L93.0692 33.8916ZM108.177 25.248L105.2 38.0122H100.94L101.461 35.8722C101.077 36.6232 100.494 37.2533 99.7769 37.6935C99.0789 38.1344 98.267 38.3588 97.4428 38.3385C96.992 38.3701 96.5394 38.3111 96.1114 38.1652C95.6835 38.0193 95.2887 37.7893 94.9501 37.4886C94.647 37.1615 94.4216 36.7696 94.2908 36.3425C94.1599 35.9154 94.1271 35.464 94.1947 35.0223C94.2037 34.7679 94.2289 34.5145 94.2703 34.2634C94.3157 33.9377 94.3839 33.6157 94.4742 33.2996L96.3324 25.2176H100.917L99.1046 33.0188C99.0575 33.135 99.0294 33.258 99.0215 33.3831C99.0389 33.4759 99.0389 33.5711 99.0215 33.6639C98.998 33.979 99.0834 34.2925 99.2632 34.5518C99.3538 34.6631 99.4697 34.7509 99.6012 34.8077C99.7327 34.8645 99.8759 34.8886 100.019 34.8781C100.229 34.8778 100.437 34.8347 100.631 34.7512C100.824 34.6677 100.999 34.5456 101.144 34.3924C101.491 33.9877 101.726 33.4982 101.824 32.9733L103.637 25.2176L108.177 25.248ZM107.618 38.0122L110.594 25.248H114.854L114.061 28.9665C114.498 27.8243 115.155 26.7799 115.995 25.893C116.614 25.2711 117.453 24.9217 118.329 24.9217H118.593C118.725 24.9445 118.859 24.9597 118.993 24.9672L117.943 29.5204H117.838C117.43 29.5204 117.15 29.4446 116.992 29.4446C116.604 29.4214 116.216 29.4766 115.85 29.607C115.484 29.7373 115.148 29.9402 114.862 30.2034C114.182 31.067 113.751 32.1011 113.615 33.1934L112.49 37.9971L107.618 38.0122ZM125.588 35.7887C125.135 36.539 124.518 37.175 123.782 37.648C123.018 38.0758 122.157 38.298 121.282 38.293C120.791 38.3176 120.301 38.2369 119.844 38.0563C119.387 37.8757 118.973 37.5994 118.631 37.2458C118.308 36.8888 118.065 36.4661 117.919 36.0065C117.773 35.5469 117.727 35.0611 117.785 34.5821C117.823 33.818 118.073 33.0799 118.507 32.451C118.941 31.8221 119.541 31.3275 120.24 31.023C122.351 30.0831 124.648 29.6418 126.955 29.7329C127.001 29.6297 127.029 29.5194 127.038 29.4066C127.069 29.3034 127.082 29.1955 127.076 29.0879C127.106 28.9249 127.093 28.7568 127.037 28.6007C126.981 28.4447 126.885 28.3064 126.759 28.2C126.456 27.9762 126.082 27.8734 125.709 27.9116C125.254 27.9058 124.808 28.0323 124.424 28.2759C124.039 28.5393 123.733 28.9043 123.541 29.3307L119.598 28.5187C120.15 27.3635 121.069 26.4262 122.211 25.8551C123.539 25.2181 125.001 24.9134 126.471 24.9672C127.884 24.8618 129.293 25.2157 130.49 25.9765C130.927 26.3128 131.268 26.758 131.48 27.2679C131.692 27.7779 131.767 28.3347 131.699 28.883C131.705 29.0584 131.692 29.234 131.661 29.4066C131.605 29.6568 131.564 29.9102 131.54 30.1655L130.377 35.0526C130.294 35.4548 130.211 35.8115 130.173 36.0999C130.135 36.3882 130.09 36.6311 130.052 36.8587V37.4658C130.033 37.6678 130.033 37.871 130.052 38.0729H125.391C125.391 37.9136 125.346 37.7922 125.346 37.6707C125.384 37.4964 125.399 37.3178 125.391 37.1395C125.429 36.9422 125.429 36.6994 125.467 36.4945C125.505 36.2896 125.542 36.0543 125.588 35.8494V35.7887ZM126.434 31.9944C125.509 31.9727 124.595 32.1951 123.782 32.6394C123.501 32.7688 123.26 32.9714 123.083 33.2264C122.906 33.4813 122.801 33.7791 122.778 34.0889C122.749 34.2462 122.755 34.408 122.796 34.5627C122.836 34.7175 122.91 34.8614 123.012 34.9843C123.116 35.1047 123.247 35.1994 123.394 35.2612C123.54 35.323 123.699 35.3503 123.858 35.341C124.188 35.3338 124.511 35.2458 124.799 35.0844C125.088 34.923 125.332 34.6933 125.512 34.4152C126.025 33.7033 126.343 32.8685 126.434 31.9944ZM141.073 21.4081L140.068 25.6881H142.334L141.692 28.7236H139.358L138.232 33.2845V33.3907C138.216 33.5144 138.188 33.6363 138.149 33.755C138.119 33.9107 138.127 34.0717 138.173 34.2235C138.22 34.3753 138.302 34.5133 138.415 34.6251C138.527 34.737 138.665 34.8194 138.816 34.8648C138.967 34.9103 139.128 34.9174 139.282 34.8857C139.441 34.8857 139.6 34.8477 139.841 34.8477L140.483 34.7263L139.728 38.035C139.245 38.1564 138.761 38.2019 138.361 38.2778C137.974 38.3143 137.586 38.3295 137.198 38.3234C136.147 38.4144 135.101 38.1116 134.259 37.4734C133.927 37.1483 133.677 36.7476 133.531 36.3051C133.385 35.8627 133.347 35.3914 133.421 34.9312C133.473 34.2885 133.579 33.6513 133.738 33.0264V32.905L134.788 28.6705H133.058L133.814 25.635H135.543L136.722 21.7724L141.073 21.4081ZM147.38 30.1731H151.119C151.153 30.0703 151.168 29.9624 151.164 29.8544C151.195 29.7907 151.208 29.7199 151.202 29.6495C151.236 29.4137 151.222 29.1735 151.16 28.9436C151.097 28.7138 150.988 28.4994 150.84 28.3138C150.705 28.1445 150.534 28.009 150.339 27.9181C150.143 27.8272 149.929 27.7834 149.714 27.7902C149.167 27.8157 148.65 28.0458 148.264 28.4353C147.823 28.9272 147.519 29.5263 147.38 30.1731ZM154.851 34.1496C154.213 35.4069 153.237 36.4588 152.033 37.1851C150.864 37.9212 149.507 38.3008 148.128 38.2778C147.314 38.325 146.498 38.2061 145.731 37.9283C144.964 37.6505 144.261 37.2196 143.664 36.6614C143.124 36.0827 142.719 35.3916 142.476 34.6374C142.233 33.8831 142.159 33.0843 142.259 32.2979C142.325 31.4669 142.516 30.6508 142.825 29.8771C143.112 29.0913 143.517 28.3542 144.026 27.6916C144.733 26.7884 145.645 26.0678 146.685 25.5895C147.771 25.0897 148.951 24.8309 150.145 24.8306C150.917 24.7871 151.689 24.9171 152.405 25.2111C153.121 25.5052 153.763 25.9559 154.284 26.5305C154.801 27.158 155.183 27.887 155.404 28.671C155.625 29.4551 155.681 30.2768 155.568 31.0837C155.568 31.3266 155.568 31.5239 155.568 31.7667L155.447 32.3738H146.98C146.98 32.4573 146.942 32.4952 146.942 32.5787C146.946 32.6868 146.931 32.7948 146.897 32.8974C146.862 33.1649 146.88 33.4367 146.95 33.6972C147.02 33.9576 147.14 34.2016 147.304 34.4152C147.445 34.6098 147.635 34.764 147.853 34.8625C148.072 34.961 148.312 35.0004 148.551 34.9767C149.024 34.9945 149.489 34.8529 149.873 34.5745C150.273 34.2577 150.581 33.8383 150.764 33.3603L154.851 34.1496Z" fill="#171716"></path><path fill-rule="evenodd" clip-rule="evenodd" d="M51.7205 49.706L52.2492 48.3401C52.4693 48.4975 52.7047 48.6323 52.9517 48.7423C53.1313 48.819 53.3232 48.8627 53.5182 48.8713C53.5662 48.8763 53.6147 48.8707 53.6604 48.855C53.7061 48.8393 53.7478 48.8138 53.7826 48.7802C53.8732 48.7802 53.9186 48.6967 53.9186 48.6057C53.9186 48.5146 53.7373 48.3401 53.3898 48.3021C53.2614 48.2566 53.1708 48.2566 53.1254 48.211C52.7848 48.16 52.4738 47.9876 52.2492 47.7254C52.0651 47.4875 51.9714 47.1916 51.9848 46.8906C51.9768 46.6415 52.0242 46.3937 52.1235 46.1653C52.2228 45.9369 52.3716 45.7336 52.5589 45.5702C52.9858 45.227 53.5237 45.054 54.0696 45.0845C54.3482 45.093 54.6258 45.1209 54.9005 45.168C55.1857 45.2666 55.4634 45.3858 55.7314 45.5246L55.2102 46.8451C55.0552 46.7086 54.8758 46.603 54.6815 46.5339C54.5142 46.4647 54.3331 46.436 54.1527 46.4505C54.0696 46.4505 53.9412 46.4505 53.8959 46.496C53.8506 46.5415 53.8053 46.5795 53.8053 46.6705C53.8053 46.7616 54.0243 46.9361 54.5078 47.0196C54.5744 47.0571 54.6509 47.073 54.7268 47.0651C55.0147 47.1618 55.2742 47.3287 55.4822 47.5508C55.6781 47.802 55.7844 48.112 55.7843 48.4311C55.7893 48.677 55.7366 48.9206 55.6302 49.1421C55.5239 49.3636 55.3671 49.5568 55.1725 49.706C54.75 50.0618 54.2129 50.2507 53.6617 50.2372C53.3314 50.233 53.0034 50.1819 52.6873 50.0855C52.3492 50.0043 52.0238 49.8766 51.7205 49.706ZM67.9835 48.6057C68.0932 48.6095 68.2022 48.5875 68.3019 48.5414C68.4016 48.4953 68.4892 48.4263 68.5575 48.3401C68.6477 48.2567 68.7183 48.1542 68.764 48.04C68.8097 47.9257 68.8295 47.8027 68.8219 47.6798C68.8282 47.5503 68.808 47.4208 68.7625 47.2994C68.7171 47.178 68.6473 47.0673 68.5575 46.9741C68.4866 46.8908 68.3986 46.8239 68.2995 46.7781C68.2004 46.7322 68.0926 46.7085 67.9835 46.7085C67.868 46.7028 67.7529 46.7238 67.6468 46.7698C67.5407 46.8159 67.4466 46.8857 67.3716 46.9741C67.211 47.1723 67.1326 47.425 67.1526 47.6798C67.1381 47.7993 67.1502 47.9205 67.1881 48.0347C67.226 48.1489 67.2887 48.2532 67.3716 48.3401C67.4466 48.4284 67.5407 48.4983 67.6468 48.5443C67.7529 48.5904 67.868 48.6114 67.9835 48.6057ZM70.6197 47.6798C70.6057 48.0255 70.5447 48.3676 70.4384 48.6967C70.3003 49.0065 70.1085 49.2892 69.8719 49.5315C69.6056 49.7484 69.3108 49.9272 68.9956 50.0627C68.6723 50.1849 68.3288 50.2442 67.9835 50.2372C67.6268 50.2588 67.2696 50.2072 66.9335 50.0855C66.6175 49.9516 66.3224 49.7727 66.0573 49.5543C65.8165 49.323 65.6351 49.0366 65.5285 48.7195C65.3828 48.4018 65.3074 48.0562 65.3074 47.7064C65.3074 47.3566 65.3828 47.011 65.5285 46.6933C65.6331 46.3753 65.8148 46.0884 66.0573 45.8585C66.3005 45.6002 66.6006 45.4027 66.9335 45.2818C67.2664 45.1445 67.6237 45.0774 67.9835 45.0845C68.3291 45.0738 68.6733 45.1332 68.9956 45.259C69.3276 45.3819 69.6272 45.5791 69.8719 45.8358C70.1102 46.0767 70.3022 46.3597 70.4384 46.6705C70.544 46.9972 70.605 47.3367 70.6197 47.6798ZM80.4772 50.0855V45.1528H83.763V46.5188H82.2523V47.0879H83.612V48.3704H82.2523V50.0855H80.4772ZM94.1569 50.0855V46.7995H93.1447V45.1756H96.9215V46.7995H95.932V50.0855H94.1569ZM109.529 47.6343C109.514 47.8745 109.468 48.1117 109.393 48.3401V48.4767L108.97 50.0855H107.459L106.009 45.1528H107.806L108.207 47.3535C108.207 47.5281 108.244 47.7026 108.244 47.8847C108.282 48.0256 108.298 48.1716 108.29 48.3173H108.335C108.349 48.0627 108.38 47.8092 108.426 47.5584C108.45 47.5343 108.463 47.5015 108.463 47.4673L108.909 45.1376H110.178L110.662 47.4673V47.5584C110.724 47.8062 110.752 48.0617 110.745 48.3173H110.79C110.79 48.1883 110.835 48.0593 110.835 47.8847C110.835 47.7102 110.881 47.5281 110.926 47.3535L111.319 45.1528H113.071L111.598 50.0855H110.087L109.74 48.4615C109.722 48.4439 109.709 48.4223 109.701 48.3986C109.693 48.3749 109.691 48.3496 109.695 48.3249C109.604 48.0137 109.604 47.7937 109.559 47.6191L109.529 47.6343ZM124.122 48.3401H124.825L124.636 47.8088C124.553 47.5432 124.507 47.3232 124.462 47.1486C124.417 46.9741 124.417 46.883 124.417 46.7464C124.371 46.883 124.371 47.012 124.334 47.1486C124.326 47.3748 124.28 47.598 124.198 47.8088L124.122 48.3401ZM121.728 50.0855L123.48 45.1528H125.452L127.204 50.0855H125.27L125.097 49.5163H123.782L123.609 50.0855H121.728ZM138.346 46.4353V47.3991H138.61C138.746 47.4073 138.882 47.3785 139.003 47.3156C139.089 47.2201 139.135 47.0951 139.131 46.9665C139.141 46.9056 139.138 46.8434 139.124 46.7836C139.109 46.7237 139.083 46.6674 139.046 46.6179C139.009 46.5684 138.963 46.5268 138.911 46.4954C138.858 46.4641 138.799 46.4436 138.738 46.4353H138.346ZM136.586 50.0855V45.1528H138.852C139.39 45.1244 139.923 45.2795 140.363 45.5929C140.538 45.7451 140.676 45.9358 140.767 46.1503C140.857 46.3648 140.897 46.5974 140.884 46.8299C140.898 47.1439 140.808 47.4537 140.627 47.7102C140.446 47.9205 140.197 48.0602 139.924 48.1048L141.186 50.0855H139.169L138.338 48.4994V50.0855H136.586ZM150.658 50.0855V45.1528H153.944V46.5188H152.433V47.05H153.831V48.3249H152.433V48.8561H154.004V50.0855H150.658Z" fill="#6A2161"></path><path d="M44.3094 36.1455H45.5633L46.0316 34.6278L46.4924 33.11L47.3233 30.416L49.0984 24.6865L36.0759 36.1455H44.3094Z" fill="#6A2161"></path><path d="M24.6861 43.1427H43.4116L45.1716 37.4208H32.4815L49.8549 22.0991L52.8764 12.4463L17.7217 43.1427H24.6861Z" fill="#6A2161"></path><path d="M0 50.1387H41.2278L43.0029 44.4168H14.6918L53.9708 9.64527L56.947 0L0 50.1387Z" fill="#6A2161"></path></svg>